<?xml version="1.0" standalone="no"?>
<!DOCTYPE svg PUBLIC "-//W3C//DTD SVG 20010904//EN"
 "http://www.w3.org/TR/2001/REC-SVG-20010904/DTD/svg10.dtd">
<svg version="1.0" xmlns="http://www.w3.org/2000/svg"
 width="700.000000pt" height="700.000000pt" viewBox="0 0 700.000000 700.000000"
 preserveAspectRatio="xMidYMid meet">
<metadata>
Created by potrace 1.14, written by Peter Selinger 2001-2017
</metadata>
<g transform="translate(0.000000,700.000000) scale(0.100000,-0.100000)"
fill="#000000" stroke="none">
<path d="M863 6893 c4 -70 19 -161 42 -258 20 -82 38 -161 41 -175 2 -14 9
-38 14 -55 5 -16 11 -41 14 -55 2 -14 25 -108 51 -210 26 -102 49 -193 51
-202 7 -32 12 -51 74 -293 34 -132 93 -364 131 -515 l70 -275 222 -222 221
-222 -1 -268 c-1 -147 -3 -277 -6 -288 -3 -11 -35 -137 -72 -279 -37 -143 -68
-266 -70 -275 -2 -9 -41 -160 -86 -336 -44 -176 -96 -378 -114 -450 l-32 -130
22 -60 c33 -86 113 -258 390 -831 l83 -171 -14 -59 c-36 -154 -17 -186 216
-352 74 -53 167 -120 207 -149 l71 -52 -14 -46 c-23 -78 -16 -86 151 -175 44
-24 96 -52 115 -63 130 -73 218 -121 425 -232 313 -168 391 -201 456 -192 47
6 133 46 300 138 70 38 137 75 151 82 13 6 153 86 311 177 203 115 293 172
302 190 10 20 10 34 0 72 l-12 48 66 42 c126 82 386 261 429 296 24 20 49 47
57 62 14 27 12 36 -43 175 l-20 50 90 175 c50 96 119 229 153 295 34 66 109
212 166 325 118 232 122 253 81 380 -11 36 -52 169 -90 295 -216 712 -277 909
-304 995 l-31 95 -1 255 -1 255 31 30 c38 36 175 163 416 385 34 31 42 48 69
145 16 61 32 117 34 125 2 8 64 238 138 510 144 526 251 927 287 1075 12 50
24 99 27 110 3 11 7 64 10 119 l5 99 -88 -5 c-82 -4 -99 -9 -217 -62 -71 -31
-208 -95 -305 -142 -97 -47 -229 -110 -292 -140 -289 -138 -364 -179 -366
-199 -2 -11 -4 -185 -4 -387 -1 -203 -4 -368 -8 -368 -3 0 -53 23 -111 51 -95
46 -320 139 -346 143 -5 1 -14 4 -20 7 -9 6 -186 54 -239 65 -20 5 -162 30
-216 39 -121 20 -621 28 -770 12 -233 -25 -417 -64 -637 -136 -121 -39 -325
-122 -415 -167 -26 -13 -49 -20 -51 -16 -2 4 -5 126 -7 272 -1 146 -3 319 -3
384 l-2 119 -30 17 c-16 9 -102 54 -190 100 -88 45 -182 95 -210 110 -139 77
-534 272 -578 285 -28 8 -80 15 -115 15 l-65 0 6 -107z m732 -473 c99 -51 185
-98 190 -105 6 -8 10 -263 9 -724 l-1 -712 34 33 33 32 0 -114 0 -115 -139
139 -139 139 -31 126 c-17 69 -61 241 -96 381 -91 355 -285 1127 -285 1134 0
4 55 -22 123 -57 67 -36 203 -106 302 -157z m4208 163 c-8 -32 -16 -65 -18
-73 -5 -27 -94 -356 -187 -695 -49 -181 -101 -368 -113 -415 -85 -311 -123
-423 -157 -452 -29 -24 -110 -99 -163 -149 l-40 -38 2 222 c1 122 2 471 2 775
l1 553 208 101 c114 55 259 125 322 154 63 30 122 58 130 63 27 17 28 12 13
-46z m-2063 -817 c91 -5 240 -26 289 -40 9 -3 27 -7 41 -10 229 -44 619 -199
771 -307 l25 -18 -1 -748 c0 -732 -1 -749 -21 -793 l-20 -45 -14 25 c-24 46
-124 173 -185 236 -101 104 -192 163 -315 206 -73 25 -110 31 -200 31 -147 0
-343 -73 -527 -197 l-81 -54 -79 49 c-431 273 -819 258 -1106 -44 -49 -52
-168 -218 -181 -252 -4 -12 -4 -13 -46 55 l-35 55 -2 737 -1 738 59 35 c170
104 516 232 774 286 33 7 62 13 65 14 186 44 466 58 790 41z m-772 -1747 c30
-6 52 -12 50 -14 -6 -6 -309 -8 -314 -2 -3 3 23 12 58 19 66 15 118 14 206 -3z
m1280 -3 c136 -50 282 -207 414 -444 l40 -73 -108 -215 c-59 -118 -112 -214
-117 -214 -14 0 -277 124 -760 359 -115 55 -212 101 -217 101 -4 0 -30 -11
-57 -24 -93 -48 -525 -256 -528 -256 -4 0 -214 -104 -335 -166 -25 -13 -48
-24 -52 -24 -9 0 -105 189 -174 342 -27 60 -46 116 -46 135 2 41 66 169 127
251 25 35 48 62 50 60 2 -1 -1 -23 -5 -48 -5 -25 -8 -110 -6 -190 3 -188 20
-229 111 -278 23 -12 59 -16 150 -16 207 0 289 25 395 121 107 96 175 240 173
366 l-2 67 32 -22 c18 -12 60 -44 94 -70 34 -26 66 -48 71 -48 5 0 58 35 118
78 183 130 289 188 398 216 64 17 178 13 234 -8z m-2069 -861 l148 -290 -14
-50 c-8 -27 -23 -79 -33 -115 -18 -64 -88 -321 -95 -350 -8 -32 -137 -499
-156 -563 -19 -63 -22 -67 -34 -50 -8 10 -15 23 -15 29 0 6 -10 31 -23 55 -13
24 -81 164 -151 310 l-127 267 30 113 c34 129 200 781 239 937 l25 103 29 -53
c16 -29 96 -183 177 -343z m2835 230 c48 -157 84 -275 222 -735 l76 -255 -53
-105 c-29 -58 -54 -109 -55 -115 -2 -5 -31 -64 -66 -130 -35 -67 -88 -169
-118 -227 -30 -59 -55 -106 -57 -105 -1 1 -67 262 -146 579 l-144 576 63 123
c87 172 220 449 229 478 10 32 17 19 49 -84z m-1431 -185 c42 -19 77 -37 77
-40 0 -3 -72 -5 -160 -5 -88 0 -160 1 -160 2 0 5 155 82 161 80 3 -1 41 -18
82 -37z m-347 -219 c2 -157 15 -217 58 -268 53 -60 116 -87 206 -87 89 1 132
18 188 73 60 60 76 118 77 278 0 73 2 133 4 133 2 0 30 -14 63 -32 62 -33 72
-47 82 -113 5 -31 21 -118 51 -285 2 -14 18 -106 35 -205 17 -99 39 -227 50
-285 11 -58 21 -118 24 -135 3 -16 12 -73 21 -125 9 -52 18 -106 20 -120 14
-85 53 -316 59 -350 3 -14 8 -41 10 -60 3 -19 8 -46 11 -60 2 -13 7 -40 10
-60 3 -20 8 -47 10 -60 3 -14 8 -41 11 -60 3 -19 21 -125 40 -235 l34 -200
-27 -20 c-24 -18 -336 -201 -463 -272 -30 -16 -75 -41 -100 -55 -127 -71 -199
-108 -209 -108 -31 0 -814 426 -832 452 -3 5 7 77 23 161 16 84 31 166 34 182
5 29 90 479 98 521 2 12 7 37 10 57 3 20 30 166 61 326 30 159 57 303 60 318
2 15 7 39 10 53 3 14 9 50 15 80 6 30 12 66 15 80 3 14 18 97 35 185 17 88 35
178 40 200 5 22 12 63 15 90 4 28 12 55 18 62 9 9 124 73 131 73 1 0 2 -58 2
-129z m1348 -822 c167 -669 207 -822 235 -906 l17 -51 -157 -106 c-87 -58
-160 -106 -162 -106 -3 0 -7 21 -11 47 -11 79 -44 277 -62 373 -2 14 -7 41
-10 60 -2 19 -7 46 -9 60 -3 14 -8 42 -11 64 -3 21 -8 48 -10 60 -5 25 -31
168 -37 211 -5 28 -32 188 -42 245 -5 22 -17 100 -31 185 -2 17 -9 53 -14 80
-11 58 -16 88 -30 170 -5 33 -12 71 -15 85 -3 14 -8 48 -11 75 -4 28 -10 59
-15 70 l-8 20 -1 -20 c-2 -23 -29 88 -30 121 0 20 10 17 128 -41 l127 -62 159
-634z m-1778 724 c-5 -19 -12 -57 -21 -112 -3 -19 -7 -37 -9 -40 -2 -3 -7 -28
-10 -55 -4 -28 -18 -104 -31 -170 -12 -67 -26 -137 -29 -156 -3 -19 -8 -46
-11 -60 -6 -29 -23 -121 -31 -165 -2 -16 -14 -79 -26 -140 -11 -60 -22 -119
-24 -130 -35 -189 -46 -247 -54 -285 -10 -49 -32 -166 -35 -190 -1 -8 -5 -28
-8 -45 -8 -33 -11 -50 -28 -140 -6 -33 -12 -64 -13 -70 -2 -5 -6 -31 -10 -56
-4 -25 -11 -51 -16 -59 -5 -9 -47 16 -154 91 -80 57 -146 108 -146 115 0 18
47 198 212 804 191 706 207 762 213 769 11 11 210 109 223 110 8 1 11 -6 8
-16z"/>
<path d="M4061 3979 c-80 -36 -131 -117 -131 -209 0 -98 49 -168 144 -211 150
-66 325 73 302 238 -21 153 -178 244 -315 182z"/>
</g>
</svg>
