<?xml version="1.0" encoding="UTF-8" standalone="no"?>
<!-- Created with Inkscape (http://www.inkscape.org/) -->

<svg
   version="1.1"
   id="svg192"
   width="512"
   height="512"
   viewBox="0 0 512 512"
   sodipodi:docname="odin-lined.svg"
   inkscape:version="1.2.2 (b0a8486541, 2022-12-01)"
   xmlns:inkscape="http://www.inkscape.org/namespaces/inkscape"
   xmlns:sodipodi="http://sodipodi.sourceforge.net/DTD/sodipodi-0.dtd"
   xmlns="http://www.w3.org/2000/svg"
   xmlns:svg="http://www.w3.org/2000/svg">
  <defs
     id="defs196" />
  <sodipodi:namedview
     id="namedview194"
     pagecolor="#505050"
     bordercolor="#ffffff"
     borderopacity="1"
     inkscape:showpageshadow="0"
     inkscape:pageopacity="0"
     inkscape:pagecheckerboard="1"
     inkscape:deskcolor="#505050"
     showgrid="false"
     inkscape:zoom="0.70710678"
     inkscape:cx="129.40054"
     inkscape:cy="250.3158"
     inkscape:window-width="1920"
     inkscape:window-height="1056"
     inkscape:window-x="0"
     inkscape:window-y="24"
     inkscape:window-maximized="1"
     inkscape:current-layer="svg192" />
  <path
     style="display:inline;fill:#fefefe;stroke:#000000;stroke-width:10;stroke-miterlimit:4;stroke-dasharray:none;stroke-opacity:1;paint-order:stroke markers fill"
     d="m 214.93176,487.10369 c -20.14361,-10.92447 -36.78621,-20.00153 -36.98356,-20.17126 -0.19732,-0.16987 0.30982,-2.26752 1.12699,-4.66177 l 1.48575,-4.35322 -19.19188,-13.72691 C 140.38761,429.18361 141.41963,430.54689 143.4954,420.57922 l 1.23184,-5.91517 -18.10261,-37.73856 C 116.66819,356.16928 108.522,338.64498 108.522,337.9826 c 0,-0.66237 6.23611,-25.582 13.85803,-55.37695 l 13.85799,-54.17262 V 207.90144 187.36985 L 119.81717,170.9551 103.39629,154.54033 85.690828,84.97062 C 74.059471,39.267787 67.97721,13.621052 67.961584,10.212817 l -0.02376,-5.1880784 h 3.501892 c 2.622443,0 12.255172,4.575958 38.357004,18.2212134 l 34.85513,18.221213 0.26147,31.266752 c 0.14381,17.196721 0.58924,31.099533 0.98985,30.895153 38.96575,-19.879794 70.4363,-27.831245 110.10772,-27.820165 35.05849,0.01002 63.01662,6.553664 92.78543,21.717322 l 12.11196,6.169593 0.26133,-31.101452 0.26132,-31.101459 37.61463,-18.215801 C 427.13449,9.6743477 437.6002,5.0566768 440.37212,5.0430231 l 3.71196,-0.018297 -9.8e-4,4.6939774 c -7.9e-4,3.0181055 -6.81585,29.6451635 -19.08842,74.5802235 l -19.08741,69.886243 -18.00599,16.58174 -18.00599,16.58175 -0.0237,19.73966 -0.0237,19.73967 16.82757,54.923 c 9.25518,30.20765 16.8276,55.47706 16.8276,56.15423 0,0.67718 -8.72785,18.12126 -19.39522,38.7646 l -19.39519,37.53336 2.67816,6.63972 c 1.47298,3.65185 2.88813,7.16788 3.14477,7.8134 0.26993,0.67892 -8.47408,7.13594 -20.74227,15.3172 l -21.20894,14.1435 1.43259,4.26164 c 0.78794,2.34388 1.27482,4.41205 1.08203,4.59592 -0.19273,0.18381 -16.2335,9.27226 -35.6459,20.19646 -31.08989,17.49556 -35.80758,19.85815 -39.59436,19.82874 -3.68428,-0.0296 -9.53594,-2.87355 -40.92375,-19.89607 z m 73.74444,-6.6904 c 24.02255,-13.59755 31.15265,-18.06916 31.05912,-19.47864 -0.0667,-1.00622 -1.75485,-11.39036 -3.75125,-23.07588 -1.99643,-11.68552 -8.51924,-49.92907 -14.49519,-84.98567 -5.97594,-35.05659 -11.24683,-64.63652 -11.71304,-65.73316 -0.55248,-1.29964 -6.57764,-4.7081 -17.30317,-9.78854 l -16.45548,-7.7946 -16.52666,7.89326 c -9.08966,4.34127 -16.86848,8.52375 -17.28623,9.2944 -0.58475,1.07866 -32.19895,169.04626 -32.86069,174.59024 -0.15668,1.31265 64.12667,36.72672 66.66727,36.72736 0.81664,2e-4 15.51603,-7.94173 32.66532,-17.64877 z M 248.54457,313.48022 c -5.66487,-3.44876 -6.84659,-6.44777 -6.86766,-17.42894 l -0.0191,-9.88206 h 14.35295 14.35294 l 0.28772,8.16637 c 0.35013,9.93769 -1.81108,15.88062 -6.90192,18.97925 -4.19319,2.5522 -11.16002,2.62801 -15.20505,0.16542 z m 110.0852,113.117 c 0.87916,-0.82804 0.59215,-2.52021 -1.19074,-7.02023 -1.292,-3.26109 -8.43575,-30.55154 -15.87494,-60.64543 l -13.52582,-54.71619 -13.96384,-6.74274 c -7.68007,-3.70852 -14.02993,-6.65717 -14.11072,-6.55257 -0.0808,0.10463 4.2161,25.53764 9.54872,56.51789 5.33262,30.98024 11.3809,66.35856 13.44063,78.61849 l 3.74492,22.29075 15.3867,-10.32946 c 8.46267,-5.68119 15.90796,-10.82044 16.54509,-11.42051 z M 197.06213,372.14311 c 7.35544,-39.67647 13.7601,-74.19389 14.23257,-76.7054 l 0.85907,-4.56639 -9.00453,4.17485 c -18.85154,8.74036 -19.2074,8.97712 -20.44309,13.60165 -0.61767,2.31162 -7.49061,27.54931 -15.27319,56.08376 -7.78258,28.53443 -14.58,53.94415 -15.10538,56.46607 l -0.95524,4.58527 15.42976,11.04065 c 13.32944,9.5378 15.5289,10.79684 16.15813,9.24958 0.4006,-0.98505 6.74646,-34.2536 14.1019,-73.93004 z m 189.50112,-19.99939 7.31501,-14.74988 -3.7387,-12.76565 c -6.39958,-21.85106 -24.43268,-80.90785 -24.97897,-81.80388 -0.28567,-0.46865 -2.60734,4.20062 -5.15917,10.37616 -2.55182,6.17552 -8.87942,19.63609 -14.06127,29.91236 l -9.42161,18.68415 12.43329,49.6894 12.43331,49.68943 8.93154,-17.14113 c 4.91234,-9.42762 12.22329,-23.77855 16.24657,-31.89096 z m -224.51888,-1.18692 13.4331,-49.33275 -12.97241,-25.51511 c -7.13484,-14.03331 -14.54983,-28.05918 -16.47774,-31.1686 l -3.50534,-5.65348 -12.47447,48.97497 -12.47449,48.97494 15.02419,31.51991 c 8.2633,17.33597 15.2469,31.52284 15.51913,31.52639 0.27221,0.002 6.53982,-22.19323 13.92803,-49.32627 z m 57.40545,-74.10061 36.58945,-17.71278 36.67739,17.72988 c 20.17257,9.75143 36.98137,17.53719 37.35294,17.3017 0.37156,-0.23538 4.90646,-8.93196 10.07756,-19.32549 l 9.40197,-18.89733 -3.87438,-7.12611 c -9.28253,-17.07326 -19.68727,-28.92251 -29.68436,-33.80547 -14.39256,-7.02986 -29.45489,-3.54156 -50.79815,11.76439 l -9.13101,6.54817 -6.14359,-4.51512 c -17.72831,-13.02905 -35.07934,-18.89041 -48.08481,-16.24365 -13.5078,2.74902 -26.23132,13.62579 -33.80162,28.89543 -6.35359,12.81552 -6.53003,11.40056 4.18997,33.60261 5.17753,10.72309 9.68942,19.49655 10.02641,19.49655 0.33703,0 17.07802,-7.97077 37.20223,-17.71278 z m -28.27466,-13.022 c -4.85794,-2.81034 -5.39892,-4.60457 -5.4222,-17.98342 -0.0235,-13.51961 0.85008,-16.90103 5.14187,-19.9021 1.81658,-1.27025 5.62827,-1.5423 21.60998,-1.5423 h 19.40437 l 2.39973,2.5522 c 4.91512,5.2274 1.9292,18.72326 -6.0775,27.46924 -6.83647,7.46768 -12.55385,9.78749 -25.17794,10.2158 -6.30326,0.21387 -10.61766,-0.08 -11.87831,-0.80942 z m 106.59766,-17.71263 c -9.93195,-6.04523 -5.52611,-21.77202 6.07467,-21.68377 12.14705,0.0925 15.96806,16.99821 5.0147,22.18724 -4.25108,2.0139 -7.17131,1.88132 -11.08937,-0.50347 z M 165.21715,228.64541 c 19.37706,-29.68748 49.44316,-34.02018 83.11898,-11.97793 l 7.66804,5.01905 8.22239,-5.51844 c 25.7622,-17.2903 44.43527,-18.53909 63.76387,-4.26432 6.81151,5.03052 15.61388,15.50086 21.55391,25.63821 2.13307,3.64035 4.19919,6.28747 4.59143,5.8825 0.39218,-0.40497 2.08267,-4.19425 3.75658,-8.42062 l 3.04349,-7.68433 v -56.32374 -56.32375 l -4.70181,-3.01736 c -17.49724,-11.2287 -43.9641,-20.762584 -70.07499,-25.242387 -12.14054,-2.082947 -44.28343,-2.379388 -57.36926,-0.529107 -27.51656,3.890723 -58.23722,13.852523 -76.95581,24.954474 l -6.68722,3.96617 v 55.72696 55.72697 l 5.68246,9.44171 5.68246,9.44168 2.16307,-4.89308 c 1.18969,-2.69119 4.13376,-7.91239 6.54241,-11.60266 z M 394.669,152.26736 c 2.57285,-2.26208 4.31879,-8.00762 20.69565,-68.104004 9.83715,-36.098424 17.76203,-65.98853 17.61081,-66.42246 -0.15116,-0.433929 -14.30612,6.000657 -31.45542,14.299084 l -31.18054,15.088051 -0.25477,64.050879 -0.25481,64.0509 11.01455,-10.24597 c 6.05797,-5.63528 12.27895,-11.35769 13.8244,-12.71648 z M 136.22832,110.51568 136.21826,47.023474 107.36148,31.948975 C 91.490348,23.658001 78.341391,17.037613 78.141673,17.237001 c -0.199718,0.199385 7.192065,30.070297 16.426195,66.379804 l 16.789332,66.017265 12.17798,12.18692 c 6.69789,6.70279 12.29602,12.1869 12.44029,12.1869 0.1443,0 0.25794,-28.5715 0.25263,-63.49221 z"
     id="path364" />
  <g
     inkscape:groupmode="layer"
     inkscape:label="Image"
     id="g198" />
</svg>
